<svg width="547" height="601" viewBox="0 0 547 601" fill="none" xmlns="http://www.w3.org/2000/svg">
<path d="M8.928 562C7.44 562 6.355 561.69 5.673 561.07C5.053 560.388 4.743 559.365 4.743 558.001V502.852C4.743 501.488 5.053 500.465 5.673 499.783C6.355 499.101 7.44 498.76 8.928 498.76H47.523C49.011 498.76 50.034 499.07 50.592 499.69C51.15 500.248 51.429 501.24 51.429 502.666V506.107C51.429 507.533 51.15 508.556 50.592 509.176C50.034 509.796 49.011 510.106 47.523 510.106H20.088V524.707H39.246C40.734 524.707 41.757 525.017 42.315 525.637C42.873 526.195 43.152 527.187 43.152 528.613V532.054C43.152 533.48 42.873 534.503 42.315 535.123C41.757 535.743 40.734 536.053 39.246 536.053H20.088V558.001C20.088 559.365 19.778 560.388 19.158 561.07C18.538 561.69 17.453 562 15.903 562H8.928ZM82.8121 562C81.3241 562 80.2391 561.69 79.5571 561.07C78.9371 560.388 78.6271 559.365 78.6271 558.001V502.852C78.6271 501.488 78.9371 500.465 79.5571 499.783C80.2391 499.101 81.3241 498.76 82.8121 498.76H106.341C122.089 498.76 129.963 505.642 129.963 519.406C129.963 523.808 129.033 527.559 127.173 530.659C125.313 533.697 122.554 536.022 118.896 537.634L128.661 559.024C128.847 559.458 128.94 559.892 128.94 560.326C128.94 561.442 128.289 562 126.987 562H116.664C115.796 562 115.145 561.907 114.711 561.721C114.277 561.473 113.905 560.977 113.595 560.233L105.039 539.773H93.9721V558.001C93.9721 559.365 93.6621 560.388 93.0421 561.07C92.4221 561.69 91.3371 562 89.7871 562H82.8121ZM104.109 528.706C107.643 528.706 110.278 527.962 112.014 526.474C113.812 524.986 114.711 522.63 114.711 519.406C114.711 516.182 113.905 513.826 112.293 512.338C110.681 510.85 108.263 510.106 105.039 510.106H93.9721V528.706H104.109ZM154.689 562C153.573 562 153.015 561.473 153.015 560.419C153.015 559.985 153.108 559.489 153.294 558.931L177.381 501.55C177.815 500.496 178.28 499.783 178.776 499.411C179.334 498.977 180.109 498.76 181.101 498.76H187.89C188.882 498.76 189.626 498.977 190.122 499.411C190.618 499.783 191.083 500.496 191.517 501.55L215.604 558.931C215.79 559.489 215.883 559.985 215.883 560.419C215.883 561.473 215.325 562 214.209 562H202.956C202.088 562 201.437 561.876 201.003 561.628C200.631 561.318 200.29 560.791 199.98 560.047L195.702 549.073H173.103L168.918 560.047C168.608 560.791 168.236 561.318 167.802 561.628C167.43 561.876 166.81 562 165.942 562H154.689ZM192.168 538.378L184.449 518.29L176.637 538.378H192.168ZM246.837 562C245.349 562 244.264 561.69 243.582 561.07C242.962 560.388 242.652 559.365 242.652 558.001V502.759C242.652 501.395 242.962 500.403 243.582 499.783C244.264 499.101 245.38 498.76 246.93 498.76H253.812C254.928 498.76 255.796 498.915 256.416 499.225C257.036 499.473 257.532 500 257.904 500.806L273.993 538.75L290.175 500.806C290.547 500 291.043 499.473 291.663 499.225C292.283 498.915 293.151 498.76 294.267 498.76H301.149C302.699 498.76 303.784 499.101 304.404 499.783C305.086 500.403 305.427 501.395 305.427 502.759V558.001C305.427 559.365 305.086 560.388 304.404 561.07C303.784 561.69 302.73 562 301.242 562H295.569C294.019 562 292.903 561.69 292.221 561.07C291.601 560.388 291.291 559.365 291.291 558.001V522.847L278.829 550.654C278.209 551.956 277.589 552.886 276.969 553.444C276.411 553.94 275.419 554.188 273.993 554.188C272.629 554.188 271.606 553.94 270.924 553.444C270.304 552.886 269.715 551.956 269.157 550.654L256.788 522.847V558.001C256.788 559.365 256.447 560.388 255.765 561.07C255.145 561.69 254.06 562 252.51 562H246.837ZM340.52 562C339.032 562 337.947 561.69 337.265 561.07C336.645 560.388 336.335 559.365 336.335 558.001V502.852C336.335 501.488 336.645 500.465 337.265 499.783C337.947 499.101 339.032 498.76 340.52 498.76H379.115C380.603 498.76 381.626 499.07 382.184 499.69C382.742 500.248 383.021 501.24 383.021 502.666V506.107C383.021 507.533 382.742 508.556 382.184 509.176C381.626 509.796 380.603 510.106 379.115 510.106H351.68V524.8H370.838C372.326 524.8 373.349 525.11 373.907 525.73C374.465 526.288 374.744 527.28 374.744 528.706V531.961C374.744 533.387 374.465 534.41 373.907 535.03C373.349 535.65 372.326 535.96 370.838 535.96H351.68V550.747H379.022C380.51 550.747 381.533 551.057 382.091 551.677C382.649 552.297 382.928 553.32 382.928 554.746V558.094C382.928 559.52 382.649 560.543 382.091 561.163C381.533 561.721 380.51 562 379.022 562H340.52ZM438.455 563.395C427.915 563.395 419.855 560.512 414.275 554.746C408.757 548.98 405.998 540.858 405.998 530.38C405.998 519.902 408.757 511.78 414.275 506.014C419.855 500.248 427.915 497.365 438.455 497.365C448.933 497.365 456.931 500.248 462.449 506.014C468.029 511.78 470.819 519.902 470.819 530.38C470.819 540.858 468.029 548.98 462.449 554.746C456.931 560.512 448.933 563.395 438.455 563.395ZM438.455 552.328C444.097 552.328 448.344 550.499 451.196 546.841C454.11 543.121 455.567 537.634 455.567 530.38C455.567 523.126 454.11 517.67 451.196 514.012C448.344 510.292 444.097 508.432 438.455 508.432C432.751 508.432 428.442 510.292 425.528 514.012C422.676 517.67 421.25 523.126 421.25 530.38C421.25 537.634 422.676 543.121 425.528 546.841C428.442 550.499 432.751 552.328 438.455 552.328ZM519.911 563.395C515.075 563.395 510.425 562.899 505.961 561.907C501.559 560.853 497.994 559.396 495.266 557.536C494.336 556.854 493.871 556.234 493.871 555.676C493.871 555.304 494.026 554.87 494.336 554.374L498.149 548.329C498.521 547.709 498.924 547.399 499.358 547.399C499.73 547.399 500.195 547.585 500.753 547.957C503.047 549.259 505.682 550.313 508.658 551.119C511.634 551.925 514.641 552.328 517.679 552.328C521.275 552.328 523.941 551.77 525.677 550.654C527.413 549.476 528.281 547.647 528.281 545.167C528.281 543.493 527.847 542.129 526.979 541.075C526.173 540.021 524.933 539.091 523.259 538.285C521.647 537.479 519.136 536.425 515.726 535.123C511.758 533.635 508.379 532.116 505.589 530.566C502.861 529.016 500.598 527.032 498.8 524.614C497.064 522.134 496.196 519.127 496.196 515.593C496.196 509.703 498.335 505.208 502.613 502.108C506.891 498.946 512.533 497.365 519.539 497.365C528.777 497.365 535.845 499.101 540.743 502.573C541.673 503.317 542.138 503.937 542.138 504.433C542.138 504.805 541.983 505.239 541.673 505.735L537.86 511.78C537.488 512.4 537.085 512.71 536.651 512.71C536.279 512.71 535.814 512.524 535.256 512.152C531.474 509.672 526.886 508.432 521.492 508.432C514.796 508.432 511.448 510.85 511.448 515.686C511.448 517.298 511.82 518.631 512.564 519.685C513.37 520.677 514.455 521.545 515.819 522.289C517.183 522.971 519.322 523.87 522.236 524.986L524.84 526.009C529.366 527.807 532.931 529.512 535.535 531.124C538.139 532.674 540.123 534.596 541.487 536.89C542.913 539.184 543.626 542.129 543.626 545.725C543.626 551.119 541.58 555.428 537.488 558.652C533.458 561.814 527.599 563.395 519.911 563.395Z" fill="black"/>
<path d="M94 205L67 172.5V17.5C70.4623 7.42774 74.0102 3.50964 84.5 1H461C472.592 2.94741 476.455 6.98927 479.5 18.5V194C469.113 190.199 463.185 189.176 452.5 188.5V27.5H93.5L94 205Z" fill="black"/>
<path d="M67 195V255.5C99 300 170 312 218.5 283.5C125.5 285.5 67 195 67 195Z" fill="black"/>
<path d="M67 279.5V354.5C137.298 380.353 192.376 348.719 288 296C379.844 242.132 422.506 237.393 479.5 286.5V211C426.559 189.304 376.17 217.882 288 265.5C175.402 326.743 129.115 325.35 67 279.5Z" fill="black"/>
<path d="M479.5 308L480 377.5C417.575 300.955 379.294 282.994 304.5 300.5C366.5 260 427.5 250 479.5 308Z" fill="black"/>
<path d="M67 371.5V390C67.4122 402.962 86.3082 407.492 90 407C90 407 315.201 407 459.5 407C468.5 407 479.08 396.298 471.5 390L452.5 367V380.5L97.5 380C85.2749 379.802 78.9347 378.527 67 371.5Z" fill="black"/>
<path d="M90 407C86.3082 407.492 67.4122 402.962 67 390V371.5C78.9347 378.527 85.2749 379.802 97.5 380L452.5 380.5V367L471.5 390C479.08 396.298 468.5 407 459.5 407M90 407C90 407 450.5 407 459.5 407M90 407C90 407 315.201 407 459.5 407M94 205L67 172.5V17.5C70.4623 7.42774 74.0102 3.50964 84.5 1H461C472.592 2.94741 476.455 6.98927 479.5 18.5V194C469.113 190.199 463.185 189.176 452.5 188.5V27.5H93.5L94 205ZM67 195V255.5C99 300 170 312 218.5 283.5C125.5 285.5 67 195 67 195ZM67 279.5V354.5C137.298 380.353 192.376 348.719 288 296C379.844 242.132 422.506 237.393 479.5 286.5V211C426.559 189.304 376.17 217.882 288 265.5C175.402 326.743 129.115 325.35 67 279.5ZM479.5 308L480 377.5C417.575 300.955 379.294 282.994 304.5 300.5C366.5 260 427.5 250 479.5 308Z" stroke="black"/>
</svg>
