<svg xmlns="http://www.w3.org/2000/svg" width="1183" height="887" viewBox="0 0 1183 887">
<g>
<path d="M 388.75 460.46 C384.76,462.13 369.64,462.47 364.79,461.01 C360.50,459.72 356.38,456.33 354.64,452.64 C353.18,449.58 353.01,436.04 352.90,312.76 C352.90,307.02 352.89,301.51 352.89,296.23 C352.78,181.27 352.77,174.44 356.15,170.48 C356.51,170.05 356.92,169.65 357.37,169.15 C357.86,168.62 358.15,168.14 358.51,167.71 C361.58,163.98 369.18,163.98 544.77,164.00 C557.10,164.00 570.26,164.00 584.30,164.00 L 803.70 164.00 L 807.10 166.27 C812.70,170.01 814.00,173.86 814.00,186.79 C814.00,200.00 812.44,204.32 806.28,208.15 L 802.50 210.50 L 603.55 210.76 L 404.61 211.02 L 402.30 213.18 L 400.00 215.35 L 399.98 331.42 C399.96,441.92 399.87,447.69 398.12,451.50 C395.93,456.26 393.70,458.39 388.75,460.46 ZM 806.80 703.75 L 802.65 706.50 L 714.07 706.67 C665.36,706.77 624.28,706.48 622.79,706.02 C613.65,703.23 610.04,696.72 610.04,683.00 C610.04,671.38 611.90,666.47 617.63,662.90 L 621.50 660.50 L 766.50 659.50 L 767.00 576.50 C767.36,516.24 767.82,492.95 768.66,491.50 C772.64,484.62 779.01,482.00 791.76,482.00 C804.16,482.00 809.19,484.14 812.72,490.94 L 815.04 495.39 L 814.77 594.94 C814.75,602.70 814.73,609.88 814.72,616.52 C814.55,689.47 814.53,698.03 810.31,701.51 C809.37,702.29 808.21,702.82 806.80,703.75 Z" fill="rgb(24,25,30)"/>
<path d="M 535.62 632.44 C532.93,634.45 531.56,634.51 483.68,634.78 L 434.50 635.06 L 430.00 632.78 C426.79,631.15 424.89,629.29 423.38,626.29 C421.30,622.18 421.25,621.11 421.38,576.79 C421.49,534.75 421.63,531.28 423.33,528.50 C424.34,526.85 426.37,524.60 427.83,523.50 C430.41,521.57 432.28,521.49 482.19,521.22 L 533.87 520.95 L 537.42 524.07 C539.38,525.78 541.46,528.83 542.04,530.84 C542.75,533.27 543.01,549.70 542.81,579.68 C542.51,623.50 542.44,624.94 540.44,627.62 C539.30,629.13 537.13,631.30 535.62,632.44 Z" fill="rgb(48,114,99)"/>
<path d="M 667.10 511.73 L 663.70 514.00 L 613.60 514.00 C565.37,513.99 563.38,513.92 560.24,512.01 C558.45,510.91 556.09,508.55 554.99,506.76 C553.09,503.63 553.01,501.64 553.00,457.70 L 553.00 454.33 C553.00,416.52 553.00,410.02 556.20,406.23 C556.95,405.34 557.89,404.59 559.04,403.62 L 562.15 401.00 L 613.13 401.00 C614.74,401.00 616.32,401.00 617.84,401.00 C659.65,401.00 666.93,400.99 670.02,404.59 C670.78,405.48 671.28,406.59 671.99,407.98 C673.92,411.76 674.00,413.82 674.00,457.21 L 674.00 458.90 C674.00,498.25 674.00,505.50 670.38,509.24 C669.51,510.14 668.44,510.84 667.10,511.73 Z" fill="rgb(147,174,55)"/>
<path d="M 801.80 395.10 C798.29,396.89 795.22,397.00 747.79,396.98 C700.36,396.96 697.26,396.85 693.27,395.04 C690.83,393.93 688.19,391.72 687.02,389.81 C685.08,386.62 685.01,384.87 685.00,339.98 L 685.00 336.92 C685.00,297.93 685.00,290.41 688.76,286.81 C689.75,285.86 691.01,285.18 692.60,284.27 C696.49,282.04 696.57,282.03 747.35,282.02 C748.87,282.02 750.36,282.02 751.80,282.01 C793.93,282.00 801.52,281.99 805.09,285.78 C806.00,286.75 806.65,287.95 807.53,289.47 L 810.00 293.68 L 810.00 339.45 C810.00,385.02 809.99,385.25 807.76,389.22 C806.44,391.56 803.98,393.99 801.80,395.10 Z" fill="rgb(210,171,83)"/>
<path d="M 0.00 443.50 L 0.00 0.00 L 591.50 0.00 L 1183.00 0.00 L 1183.00 443.50 L 1183.00 887.00 L 591.50 887.00 L 0.00 887.00 L 0.00 443.50 ZM 806.80 703.75 C815.10,698.26 814.47,706.95 814.77,594.94 L 815.04 495.39 L 812.72 490.94 C809.19,484.14 804.16,482.00 791.76,482.00 C779.01,482.00 772.64,484.62 768.66,491.50 C767.82,492.95 767.36,516.24 767.00,576.50 L 766.50 659.50 L 694.00 660.00 L 621.50 660.50 L 617.63 662.90 C611.90,666.47 610.04,671.38 610.04,683.00 C610.04,696.72 613.65,703.23 622.79,706.02 C624.28,706.48 665.36,706.77 714.07,706.67 L 802.65 706.50 L 806.80 703.75 ZM 535.62 632.44 C537.13,631.30 539.30,629.13 540.44,627.62 C542.44,624.94 542.51,623.50 542.81,579.68 C543.01,549.70 542.75,533.27 542.04,530.84 C541.46,528.83 539.38,525.78 537.42,524.07 L 533.87 520.95 L 482.19 521.22 C432.28,521.49 430.41,521.57 427.83,523.50 C426.37,524.60 424.34,526.85 423.33,528.50 C421.63,531.28 421.49,534.75 421.38,576.79 C421.25,621.11 421.30,622.18 423.38,626.29 C424.89,629.29 426.79,631.15 430.00,632.78 L 434.50 635.06 L 483.68 634.78 C531.56,634.51 532.93,634.45 535.62,632.44 ZM 667.10 511.73 C674.08,507.07 674.00,507.70 674.00,457.21 C674.00,413.82 673.92,411.76 671.99,407.98 C668.32,400.79 670.09,401.00 613.13,401.00 L 562.15 401.00 L 559.04 403.62 C552.85,408.82 553.00,407.53 553.00,457.70 C553.01,501.64 553.09,503.63 554.99,506.76 C556.09,508.55 558.45,510.91 560.24,512.01 C563.38,513.92 565.37,513.99 613.60,514.00 L 663.70 514.00 L 667.10 511.73 ZM 388.75 460.46 C393.70,458.39 395.93,456.26 398.12,451.50 C399.87,447.69 399.96,441.92 399.98,331.42 L 400.00 215.35 L 402.30 213.18 L 404.61 211.02 L 603.55 210.76 L 802.50 210.50 L 806.28 208.15 C812.44,204.32 814.00,200.00 814.00,186.79 C814.00,173.86 812.70,170.01 807.10,166.27 L 803.70 164.00 L 584.30 164.00 C347.18,164.00 362.36,163.66 357.37,169.15 C352.58,174.44 352.78,168.25 352.90,312.76 C353.01,436.04 353.18,449.58 354.64,452.64 C356.38,456.33 360.50,459.72 364.79,461.01 C369.64,462.47 384.76,462.13 388.75,460.46 ZM 801.80 395.10 C803.98,393.99 806.44,391.56 807.76,389.22 C809.99,385.25 810.00,385.02 810.00,339.45 L 810.00 293.68 L 807.53 289.47 C803.03,281.79 804.72,282.00 747.35,282.02 C696.57,282.03 696.49,282.04 692.60,284.27 C684.84,288.72 685.00,287.56 685.00,339.98 C685.01,384.87 685.08,386.62 687.02,389.81 C688.19,391.72 690.83,393.93 693.27,395.04 C697.26,396.85 700.36,396.96 747.79,396.98 C795.22,397.00 798.29,396.89 801.80,395.10 Z" fill="rgb(254,254,254)"/>
</g>
</svg>