<svg xmlns="http://www.w3.org/2000/svg" viewBox="0 0 1200 825">
  <rect width="1200" height="825" fill="#ead9b7"/>
  <circle cx="870" cy="220" r="120" fill="#fff7e5" opacity="0.8"/>
  <path d="M260 560c120-180 300-260 540-240 70 6 136 24 200 54-54 22-94 54-122 94 62 22 112 58 150 108-92-12-174-10-246 8-96 24-182 68-258 134-14-70-58-124-132-158-52-24-100-34-144-30 8-10 12-20 12-30z" fill="#202020"/>
  <path d="M760 392c42-20 84-18 126 6-40 10-70 30-92 62 48 16 82 40 102 72-56-8-106-6-150 6-38 10-78 28-120 54 0-48-28-84-84-108 72-48 144-78 218-92z" fill="#f7f2ea"/>
  <circle cx="710" cy="360" r="16" fill="#202020"/>
  <path d="M870 360l108-42-54 76z" fill="#d27a2c"/>
  <rect x="108" y="112" width="244" height="18" rx="9" fill="#202020"/>
  <rect x="108" y="150" width="182" height="18" rx="9" fill="#202020"/>
  <rect x="108" y="188" width="278" height="18" rx="9" fill="#202020"/>
</svg>
