<svg width="415" height="408" viewBox="0 0 415 408" fill="none" xmlns="http://www.w3.org/2000/svg">
<path d="M28 205L1.00003 172.5V17.5C4.46229 7.42774 8.01019 3.50964 18.5 1H395C406.592 2.94741 410.455 6.98927 413.5 18.5V194C403.113 190.199 397.185 189.176 386.5 188.5V27.5H27.5L28 205Z" fill="black"/>
<path d="M1.00003 195V255.5C33 300 104 312 152.5 283.5C59.5 285.5 1.00003 195 1.00003 195Z" fill="black"/>
<path d="M1.00003 279.5V354.5C71.2975 380.353 126.376 348.719 222 296C313.844 242.132 356.506 237.393 413.5 286.5V211C360.559 189.304 310.17 217.882 222 265.5C109.402 326.743 63.115 325.35 1.00003 279.5Z" fill="black"/>
<path d="M413.5 308L414 377.5C351.575 300.955 313.294 282.994 238.5 300.5C300.5 260 361.5 250 413.5 308Z" fill="black"/>
<path d="M1.00003 371.5V390C1.41218 402.962 20.3082 407.492 24 407C24 407 249.201 407 393.5 407C402.5 407 413.08 396.298 405.5 390L386.5 367V380.5L31.5 380C19.2749 379.802 12.9347 378.527 1.00003 371.5Z" fill="black"/>
<path d="M24 407C20.3082 407.492 1.41218 402.962 1.00003 390V371.5C12.9347 378.527 19.2749 379.802 31.5 380L386.5 380.5V367L405.5 390C413.08 396.298 402.5 407 393.5 407M24 407C24 407 384.5 407 393.5 407M24 407C24 407 249.201 407 393.5 407M28 205L1.00003 172.5V17.5C4.46229 7.42774 8.01019 3.50964 18.5 1H395C406.592 2.94741 410.455 6.98927 413.5 18.5V194C403.113 190.199 397.185 189.176 386.5 188.5V27.5H27.5L28 205ZM1.00003 195V255.5C33 300 104 312 152.5 283.5C59.5 285.5 1.00003 195 1.00003 195ZM1.00003 279.5V354.5C71.2975 380.353 126.376 348.719 222 296C313.844 242.132 356.506 237.393 413.5 286.5V211C360.559 189.304 310.17 217.882 222 265.5C109.402 326.743 63.115 325.35 1.00003 279.5ZM413.5 308L414 377.5C351.575 300.955 313.294 282.994 238.5 300.5C300.5 260 361.5 250 413.5 308Z" stroke="black"/>
</svg>
